<mxfile host="app.diagrams.net" modified="2024-07-12T15:52:51.607Z" agent="Mozilla/5.0 (Windows NT 10.0; Win64; x64) AppleWebKit/537.36 (KHTML, like Gecko) Chrome/126.0.0.0 Safari/537.36" version="24.6.5" etag="D6ixrny1JYbCFKayLDQu" type="github">
  <diagram name="PÃ¡gina-1" id="9R0FyEtp1lkDT4w4hqmj">
    <mxGraphModel>
      <root>
        <mxCell id="0" />
        <mxCell id="1" parent="0" />
      </root>
    </mxGraphModel>
  </diagram>
</mxfile>
